<?xml version="1.0" standalone="no"?><!DOCTYPE svg PUBLIC "-//W3C//DTD SVG 1.1//EN" "http://www.w3.org/Graphics/SVG/1.1/DTD/svg11.dtd"><svg t="1612432619364" class="icon" viewBox="0 0 1024 1024" version="1.1" xmlns="http://www.w3.org/2000/svg" p-id="4095" xmlns:xlink="http://www.w3.org/1999/xlink" width="200" height="200"><defs><style type="text/css"></style></defs><path d="M740.55 814.5l0.15-0.12-2.28 1.73 0.48-0.36zM273.08 209.52l-0.26 0.21c2.15-1.61 3-2.26 3.13-2.37l-0.46 0.34c-0.81 0.6-1.61 1.21-2.41 1.82zM204.36 745.75c0.07 0.09 0.14 0.17 0.2 0.26-1.61-2.15-2.26-3-2.36-3.13l0.33 0.46z" p-id="4096"></path><path d="M897.45 635.93c-7.65-1.74-16.24-1.37-23 3s-10.67 10.24-13.74 17.87c-0.49 1.23-1 2.45-1.51 3.67a414.12 414.12 0 0 1-26.88 51.71q-8 13-17 25.46-2.44 3.39-4.95 6.72l-0.75 1c-3.05 3.84-6.12 7.66-9.29 11.4a413.74 413.74 0 0 1-42.69 43.52q-5.73 5-11.64 9.87c-1.74 1.42-3.5 2.82-5.26 4.22l1.52-1.15-1.7 1.29c-1.27 1-4 3-2.1 1.59q-12 9-24.64 17.1A414.62 414.62 0 0 1 655 864.45a414.49 414.49 0 0 1-96.75 26.38 421.42 421.42 0 0 1-102.86 0 415.08 415.08 0 0 1-96.93-26.44 415.41 415.41 0 0 1-51.59-26.79q-13.39-8.22-26.13-17.43c-1.77-1.28-3.52-2.57-5.27-3.87l-1.95-1.48c-3.85-3-7.66-6.12-11.41-9.29a415.72 415.72 0 0 1-43.72-42.9q-4.74-5.4-9.28-11c-1.54-1.87-3.06-3.77-4.57-5.67l1.13 1.49-1.33-1.75c-0.05-0.06-0.09-0.12-0.14-0.17-0.8-1-2.21-2.92-2-2.7q-8.83-11.83-16.79-24.23a412.63 412.63 0 0 1-31-58.44A414 414 0 0 1 128 563.41a421.1 421.1 0 0 1 0-102.82 414.75 414.75 0 0 1 26.44-96.95 415.41 415.41 0 0 1 26.79-51.59q8.22-13.38 17.43-26.13c1.28-1.76 2.57-3.52 3.87-5.26 0.49-0.66 1-1.31 1.48-2 3-3.84 6.12-7.66 9.29-11.4a414.76 414.76 0 0 1 42.9-43.72q5.39-4.74 10.95-9.29c1.87-1.54 3.77-3.06 5.67-4.56l-1.49 1.12 1.75-1.33 0.17-0.14c1-0.8 2.92-2.2 2.7-2q11.83-8.82 24.27-16.79a414.32 414.32 0 0 1 58.45-31 414.47 414.47 0 0 1 96.75-26.37 422.09 422.09 0 0 1 102.82 0 415 415 0 0 1 97 26.46A413.89 413.89 0 0 1 704.5 185q12.69 7.67 24.8 16.23c3.82 2.71 7.58 5.51 11.33 8.31l0.65 0.52q3.3 2.63 6.56 5.31a415.11 415.11 0 0 1 41.75 39.67q10 10.89 19.15 22.48l0.77 1c1.32 1.76 2.65 3.52 4 5.3 1.6 2.18 3.18 4.39 4.74 6.61l-83.63 62.51L959 444.71l-1.78-258.22L866 254.7a451.8 451.8 0 0 0-115.82-111.48c-69-46-151.43-71.16-234.27-72.95A443.51 443.51 0 0 0 292 125.83C226.42 162.26 170.58 216 131 279.64 90.07 345.4 67.51 422 65.19 499.38a443.73 443.73 0 0 0 53.89 224.56c35.81 65.72 89 121.73 152.07 161.82 65.32 41.5 141.64 64.63 218.88 67.73a441.58 441.58 0 0 0 402-225 475.09 475.09 0 0 0 26.3-55.83c2.7-6.73 0.48-17.06-3-23-3.64-6.19-10.75-12.11-17.88-13.73z" p-id="4097"></path></svg>